# xmcd CD database file
#
# Track frame offsets:
#	150
#	16285
#	27172
#	42940
#	54772
#	65317
#	76797
#	89575
#	104732
#	115582
#	126380
#	138390
#
# Disc length: 1968 seconds
#
# Revision: 1
# Processed by: cddbd v1.5.2PL0 Copyright (c) Steve Scherf et al.
# Submitted via: CDex 1.70beta2
#
DISCID=9707ae0c
DTITLE=James Burton - The Guitar Sounds Of James Burton
DYEAR=1971
DGENRE=Rock
TTITLE0=Polk Salad Annie
TTITLE1=Suzie-Q
TTITLE2=Fire And Rain
TTITLE3=Fools Rush In
TTITLE4=Johnny B. Goode
TTITLE5=I Know (You Don't Want Me No More)
TTITLE6=Delta Lady
TTITLE7=Mystery Train
TTITLE8=Rock And Raunch
TTITLE9=Hound Dog
TTITLE10=Hi-Heel Sneakers
TTITLE11=Long Reach
EXTD=YEAR: 1971
EXTT0=
EXTT1=
EXTT2=
EXTT3=
EXTT4=
EXTT5=
EXTT6=
EXTT7=
EXTT8=
EXTT9=
EXTT10=
EXTT11=
PLAYORDER=
